STARTFONT 2.1
FONT -FontForge-Roboto Light-Light-R-Normal--24-240-75-75-P-120-ISO10646-1
SIZE 24 75 75
FONTBOUNDINGBOX 22 26 -1 -6
COMMENT "Generated by fontforge, http://fontforge.sourceforge.net"
COMMENT "Copyright 2011 Google Inc. All Rights Reserved."
STARTPROPERTIES 40
FOUNDRY "FontForge"
FAMILY_NAME "Roboto Light"
WEIGHT_NAME "Light"
SLANT "R"
SETWIDTH_NAME "Normal"
ADD_STYLE_NAME ""
PIXEL_SIZE 24
POINT_SIZE 240
RESOLUTION_X 75
RESOLUTION_Y 75
SPACING "P"
AVERAGE_WIDTH 120
CHARSET_REGISTRY "ISO10646"
CHARSET_ENCODING "1"
FONTNAME_REGISTRY ""
CHARSET_COLLECTIONS "ISO10646-1"
FONT_NAME "Roboto-Light"
FACE_NAME "Roboto Light"
COPYRIGHT "Copyright 2011 Google Inc. All Rights Reserved."
FONT_VERSION "2.137; 2017"
FONT_ASCENT 18
FONT_DESCENT 6
UNDERLINE_POSITION -2
UNDERLINE_THICKNESS 2
X_HEIGHT 12
CAP_HEIGHT 16
RAW_ASCENT 750
RAW_DESCENT 250
NORM_SPACE 6
RELATIVE_WEIGHT 30
RELATIVE_SETWIDTH 50
SUPERSCRIPT_X 0
SUPERSCRIPT_Y 11
SUPERSCRIPT_SIZE 15
SUBSCRIPT_X 0
SUBSCRIPT_Y 3
SUBSCRIPT_SIZE 15
FIGURE_WIDTH 13
AVG_LOWERCASE_WIDTH 116
AVG_UPPERCASE_WIDTH 151
ENDPROPERTIES
CHARS 95
STARTCHAR space
ENCODING 32
SWIDTH 243 0
DWIDTH 6 0
BBX 1 1 0 0
BITMAP
00
ENDCHAR
STARTCHAR exclam
ENCODING 33
SWIDTH 225 0
DWIDTH 5 0
BBX 2 17 2 0
BITMAP
80
80
80
80
80
80
80
80
80
80
80
80
00
00
00
80
C0
ENDCHAR
STARTCHAR quotedbl
ENCODING 34
SWIDTH 287 0
DWIDTH 7 0
BBX 4 5 2 13
BITMAP
B0
B0
B0
A0
A0
ENDCHAR
STARTCHAR numbersign
ENCODING 35
SWIDTH 581 0
DWIDTH 14 0
BBX 13 17 1 0
BITMAP
0420
0420
0420
0460
0C40
7FF8
0840
0840
0840
18C0
1080
FFF0
1080
1080
1180
3100
2100
ENDCHAR
STARTCHAR dollar
ENCODING 36
SWIDTH 554 0
DWIDTH 13 0
BBX 11 22 1 -2
BITMAP
0400
0400
0400
1F00
30C0
6040
4060
4060
4000
6000
3800
0E00
0180
00C0
0060
C060
C060
4040
60C0
1F00
0400
0400
ENDCHAR
STARTCHAR percent
ENCODING 37
SWIDTH 738 0
DWIDTH 18 0
BBX 16 17 1 0
BITMAP
3800
4400
C210
8210
8220
C260
4440
3880
0180
013C
0362
0242
0443
0C43
0842
1062
003C
ENDCHAR
STARTCHAR ampersand
ENCODING 38
SWIDTH 615 0
DWIDTH 15 0
BBX 14 17 1 0
BITMAP
0F00
1180
3080
2080
2080
3180
1300
0C00
1C00
3618
6318
4190
C0D0
C070
4060
60D0
1F1C
ENDCHAR
STARTCHAR quotesingle
ENCODING 39
SWIDTH 169 0
DWIDTH 4 0
BBX 2 5 1 13
BITMAP
C0
C0
C0
C0
80
ENDCHAR
STARTCHAR parenleft
ENCODING 40
SWIDTH 318 0
DWIDTH 8 0
BBX 5 25 2 -6
BITMAP
08
18
10
20
60
40
40
C0
C0
80
80
80
80
80
80
80
C0
C0
40
40
60
20
10
18
08
ENDCHAR
STARTCHAR parenright
ENCODING 41
SWIDTH 325 0
DWIDTH 8 0
BBX 6 25 0 -6
BITMAP
40
C0
20
10
10
18
08
08
0C
0C
04
04
04
04
04
0C
0C
0C
08
18
10
10
20
60
80
ENDCHAR
STARTCHAR asterisk
ENCODING 42
SWIDTH 424 0
DWIDTH 10 0
BBX 10 10 0 7
BITMAP
0400
0400
0400
44C0
FF80
0C00
1E00
1200
2100
2180
ENDCHAR
STARTCHAR plus
ENCODING 43
SWIDTH 564 0
DWIDTH 14 0
BBX 12 12 1 2
BITMAP
0400
0400
0400
0400
0400
FFF0
0400
0400
0400
0400
0400
0400
ENDCHAR
STARTCHAR comma
ENCODING 44
SWIDTH 191 0
DWIDTH 5 0
BBX 2 5 1 -3
BITMAP
40
40
40
C0
80
ENDCHAR
STARTCHAR hyphen
ENCODING 45
SWIDTH 286 0
DWIDTH 7 0
BBX 5 1 1 7
BITMAP
F8
ENDCHAR
STARTCHAR period
ENCODING 46
SWIDTH 238 0
DWIDTH 6 0
BBX 2 2 2 0
BITMAP
C0
C0
ENDCHAR
STARTCHAR slash
ENCODING 47
SWIDTH 396 0
DWIDTH 10 0
BBX 9 18 0 -1
BITMAP
0180
0100
0300
0200
0200
0600
0400
0400
0800
0800
1800
1000
1000
2000
2000
6000
4000
C000
ENDCHAR
STARTCHAR zero
ENCODING 48
SWIDTH 554 0
DWIDTH 13 0
BBX 11 17 1 0
BITMAP
1F00
3180
60C0
4040
C060
C060
C060
C060
C060
C060
C060
C060
C060
4040
60C0
3180
1F00
ENDCHAR
STARTCHAR one
ENCODING 49
SWIDTH 554 0
DWIDTH 13 0
BBX 6 17 2 0
BITMAP
0C
3C
C4
04
04
04
04
04
04
04
04
04
04
04
04
04
04
ENDCHAR
STARTCHAR two
ENCODING 50
SWIDTH 554 0
DWIDTH 13 0
BBX 11 17 1 0
BITMAP
1F00
6180
40C0
C040
C040
0040
00C0
0080
0180
0300
0600
0C00
0800
1000
3000
6000
FFE0
ENDCHAR
STARTCHAR three
ENCODING 51
SWIDTH 554 0
DWIDTH 13 0
BBX 11 17 1 0
BITMAP
1F00
6180
40C0
C040
C040
0040
00C0
0180
0F00
0080
0040
0060
8060
C060
4040
60C0
1F00
ENDCHAR
STARTCHAR four
ENCODING 52
SWIDTH 554 0
DWIDTH 13 0
BBX 12 17 1 0
BITMAP
0180
0180
0280
0680
0480
0C80
0880
1080
3080
2080
4080
C080
FFF0
0080
0080
0080
0080
ENDCHAR
STARTCHAR five
ENCODING 53
SWIDTH 554 0
DWIDTH 13 0
BBX 10 17 2 0
BITMAP
7FC0
4000
4000
4000
4000
4000
5E00
E180
0080
00C0
0040
0040
8040
80C0
C080
6180
1E00
ENDCHAR
STARTCHAR six
ENCODING 54
SWIDTH 554 0
DWIDTH 13 0
BBX 11 17 1 0
BITMAP
0780
0C00
3000
2000
6000
4000
4F00
F0C0
E040
C060
C060
C020
4060
4060
6040
3080
1F00
ENDCHAR
STARTCHAR seven
ENCODING 55
SWIDTH 554 0
DWIDTH 13 0
BBX 11 17 1 0
BITMAP
FFE0
0060
0040
00C0
0080
0080
0180
0100
0300
0200
0600
0400
0C00
0800
1800
1800
3000
ENDCHAR
STARTCHAR eight
ENCODING 56
SWIDTH 554 0
DWIDTH 13 0
BBX 11 17 1 0
BITMAP
1F00
3180
40C0
4040
4040
4060
4040
3180
1F00
60C0
4040
C060
C020
C060
4060
60C0
1F00
ENDCHAR
STARTCHAR nine
ENCODING 57
SWIDTH 554 0
DWIDTH 13 0
BBX 11 17 1 0
BITMAP
1F00
2180
40C0
C040
C040
8060
8060
C060
40E0
61E0
1E40
0040
00C0
0080
0180
0300
3C00
ENDCHAR
STARTCHAR colon
ENCODING 58
SWIDTH 209 0
DWIDTH 5 0
BBX 3 13 1 0
BITMAP
40
60
00
00
00
00
00
00
00
00
00
40
C0
ENDCHAR
STARTCHAR semicolon
ENCODING 59
SWIDTH 194 0
DWIDTH 5 0
BBX 2 16 1 -3
BITMAP
40
C0
00
00
00
00
00
00
00
00
00
40
40
40
C0
80
ENDCHAR
STARTCHAR less
ENCODING 60
SWIDTH 511 0
DWIDTH 12 0
BBX 10 10 1 3
BITMAP
00C0
0380
0E00
3000
C000
C000
3000
0E00
0380
00C0
ENDCHAR
STARTCHAR equal
ENCODING 61
SWIDTH 553 0
DWIDTH 13 0
BBX 10 6 2 5
BITMAP
FFC0
0000
0000
0000
0000
FFC0
ENDCHAR
STARTCHAR greater
ENCODING 62
SWIDTH 518 0
DWIDTH 12 0
BBX 10 10 1 3
BITMAP
C000
7000
0C00
0300
00C0
00C0
0300
0C00
7000
C000
ENDCHAR
STARTCHAR question
ENCODING 63
SWIDTH 454 0
DWIDTH 11 0
BBX 9 17 1 0
BITMAP
3E00
6300
C180
8180
0180
0180
0100
0300
0600
0C00
0800
1800
0000
0000
0000
1800
1800
ENDCHAR
STARTCHAR at
ENCODING 64
SWIDTH 913 0
DWIDTH 22 0
BBX 20 22 1 -5
BITMAP
01FC00
070300
0C0080
180040
300060
207820
608420
410420
430430
420C10
420C30
C20830
C20820
420820
421820
431C40
61E780
200000
300000
180000
0E0400
03F800
ENDCHAR
STARTCHAR A
ENCODING 65
SWIDTH 624 0
DWIDTH 15 0
BBX 15 17 0 0
BITMAP
0100
0380
0280
06C0
0440
0440
0C60
0820
0820
1830
1010
3FF8
2008
2008
600C
4004
C006
ENDCHAR
STARTCHAR B
ENCODING 66
SWIDTH 612 0
DWIDTH 15 0
BBX 12 17 2 0
BITMAP
FF00
C0C0
C060
C060
C060
C060
C040
C0C0
FF00
C0C0
C020
C020
C030
C020
C060
C0C0
FF80
ENDCHAR
STARTCHAR C
ENCODING 67
SWIDTH 649 0
DWIDTH 16 0
BBX 12 17 2 0
BITMAP
0F80
3060
6030
4010
C010
8000
8000
8000
8000
8000
8000
8000
C010
4010
6030
3060
0F80
ENDCHAR
STARTCHAR D
ENCODING 68
SWIDTH 654 0
DWIDTH 16 0
BBX 12 17 2 0
BITMAP
FF00
C1C0
C060
C020
C030
C010
C010
C010
C010
C010
C010
C010
C030
C020
C060
C1C0
FF00
ENDCHAR
STARTCHAR E
ENCODING 69
SWIDTH 568 0
DWIDTH 14 0
BBX 11 17 2 0
BITMAP
FFE0
C000
C000
C000
C000
C000
C000
C000
FFC0
C000
C000
C000
C000
C000
C000
C000
FFE0
ENDCHAR
STARTCHAR F
ENCODING 70
SWIDTH 562 0
DWIDTH 14 0
BBX 11 17 2 0
BITMAP
FFE0
C000
C000
C000
C000
C000
C000
FFC0
C000
C000
C000
C000
C000
C000
C000
C000
C000
ENDCHAR
STARTCHAR G
ENCODING 71
SWIDTH 683 0
DWIDTH 16 0
BBX 13 17 1 0
BITMAP
0FC0
1870
3010
6018
4008
4000
4000
C000
C000
C1F8
4008
4008
4008
6008
3008
1838
07E0
ENDCHAR
STARTCHAR H
ENCODING 72
SWIDTH 707 0
DWIDTH 17 0
BBX 13 17 2 0
BITMAP
C018
C018
C018
C018
C018
C018
C018
C018
FFF8
C018
C018
C018
C018
C018
C018
C018
C018
ENDCHAR
STARTCHAR I
ENCODING 73
SWIDTH 266 0
DWIDTH 6 0
BBX 2 17 2 0
BITMAP
C0
C0
C0
C0
C0
C0
C0
C0
C0
C0
C0
C0
C0
C0
C0
C0
C0
ENDCHAR
STARTCHAR J
ENCODING 74
SWIDTH 550 0
DWIDTH 13 0
BBX 10 17 1 0
BITMAP
0040
0040
0040
0040
0040
0040
0040
0040
0040
0040
0040
0040
8040
80C0
C080
6180
3E00
ENDCHAR
STARTCHAR K
ENCODING 75
SWIDTH 630 0
DWIDTH 15 0
BBX 13 17 2 0
BITMAP
C030
C060
C0C0
C180
C300
C600
CC00
D800
FC00
E600
C200
C300
C180
C0C0
C060
C020
C038
ENDCHAR
STARTCHAR L
ENCODING 76
SWIDTH 526 0
DWIDTH 13 0
BBX 10 17 2 0
BITMAP
C000
C000
C000
C000
C000
C000
C000
C000
C000
C000
C000
C000
C000
C000
C000
C000
FFC0
ENDCHAR
STARTCHAR M
ENCODING 77
SWIDTH 865 0
DWIDTH 21 0
BBX 17 17 2 0
BITMAP
C00380
E00380
A00380
B00780
D00580
D00D80
D80980
C81980
CC1980
C41180
C43180
C62180
C26180
C34180
C14180
C1C180
C08180
ENDCHAR
STARTCHAR N
ENCODING 78
SWIDTH 709 0
DWIDTH 17 0
BBX 13 17 2 0
BITMAP
C018
E018
E018
F018
D818
C818
CC18
C618
C218
C318
C198
C098
C0D8
C078
C038
C038
C018
ENDCHAR
STARTCHAR O
ENCODING 79
SWIDTH 676 0
DWIDTH 16 0
BBX 14 17 1 0
BITMAP
0FC0
1860
2010
6018
4008
4008
C00C
C00C
C00C
C00C
C00C
4008
4008
6018
2010
1860
0FC0
ENDCHAR
STARTCHAR P
ENCODING 80
SWIDTH 615 0
DWIDTH 15 0
BBX 12 17 2 0
BITMAP
FF80
C0C0
C020
C030
C030
C030
C030
C020
C0E0
FF80
C000
C000
C000
C000
C000
C000
C000
ENDCHAR
STARTCHAR Q
ENCODING 81
SWIDTH 676 0
DWIDTH 16 0
BBX 14 20 1 -3
BITMAP
0FC0
1860
2010
6018
4008
C008
C00C
C00C
C00C
C00C
C00C
C008
4008
6018
2010
1860
0FE0
0030
0018
0008
ENDCHAR
STARTCHAR R
ENCODING 82
SWIDTH 634 0
DWIDTH 15 0
BBX 12 17 2 0
BITMAP
FF00
80C0
8060
8020
8020
8020
8020
8060
80C0
FF00
8100
8180
8080
80C0
8060
8020
8030
ENDCHAR
STARTCHAR S
ENCODING 83
SWIDTH 592 0
DWIDTH 14 0
BBX 12 17 1 0
BITMAP
1F80
30E0
6020
4030
C010
4000
6000
3800
0F00
00C0
0020
0030
8010
C010
4030
3060
1F80
ENDCHAR
STARTCHAR T
ENCODING 84
SWIDTH 597 0
DWIDTH 14 0
BBX 13 17 1 0
BITMAP
FFF8
0600
0600
0600
0600
0600
0600
0600
0600
0600
0600
0600
0600
0600
0600
0600
0600
ENDCHAR
STARTCHAR U
ENCODING 85
SWIDTH 657 0
DWIDTH 16 0
BBX 12 17 2 0
BITMAP
8010
8010
8010
8010
8010
8010
8010
8010
8010
8010
8010
8010
C030
C030
4020
30C0
1F80
ENDCHAR
STARTCHAR V
ENCODING 86
SWIDTH 616 0
DWIDTH 15 0
BBX 14 17 0 0
BITMAP
C004
400C
600C
2008
3018
3010
1010
1830
0820
0860
0C60
0440
04C0
0680
0280
0380
0100
ENDCHAR
STARTCHAR W
ENCODING 87
SWIDTH 896 0
DWIDTH 22 0
BBX 20 17 1 0
BITMAP
806030
C06030
C0E020
40B020
409060
609040
619040
211840
2108C0
330880
320C80
120480
160580
1E0500
1C0700
0C0300
0C0300
ENDCHAR
STARTCHAR X
ENCODING 88
SWIDTH 611 0
DWIDTH 15 0
BBX 13 17 1 0
BITMAP
C018
6030
6060
3060
18C0
0980
0D80
0700
0600
0700
0D80
1880
10C0
3060
6020
4030
C018
ENDCHAR
STARTCHAR Y
ENCODING 89
SWIDTH 598 0
DWIDTH 14 0
BBX 14 17 0 0
BITMAP
C00C
6008
2018
3030
1820
1860
0C40
04C0
0680
0380
0300
0300
0300
0300
0300
0300
0300
ENDCHAR
STARTCHAR Z
ENCODING 90
SWIDTH 598 0
DWIDTH 14 0
BBX 12 17 1 0
BITMAP
FFF0
0030
0060
00C0
00C0
0180
0300
0300
0600
0C00
0C00
1800
3000
2000
6000
C000
FFF0
ENDCHAR
STARTCHAR bracketleft
ENCODING 91
SWIDTH 239 0
DWIDTH 6 0
BBX 4 24 2 -4
BITMAP
F0
80
80
80
80
80
80
80
80
80
80
80
80
80
80
80
80
80
80
80
80
80
80
F0
ENDCHAR
STARTCHAR backslash
ENCODING 92
SWIDTH 394 0
DWIDTH 9 0
BBX 8 18 1 -1
BITMAP
80
C0
40
40
60
20
30
10
10
18
08
08
04
04
06
02
02
03
ENDCHAR
STARTCHAR bracketright
ENCODING 93
SWIDTH 239 0
DWIDTH 6 0
BBX 4 24 0 -4
BITMAP
F0
30
30
30
30
30
30
30
30
30
30
30
30
30
30
30
30
30
30
30
30
30
30
F0
ENDCHAR
STARTCHAR asciicircum
ENCODING 94
SWIDTH 416 0
DWIDTH 10 0
BBX 8 8 1 9
BITMAP
18
18
3C
24
64
42
42
83
ENDCHAR
STARTCHAR underscore
ENCODING 95
SWIDTH 431 0
DWIDTH 10 0
BBX 10 1 0 -1
BITMAP
FFC0
ENDCHAR
STARTCHAR grave
ENCODING 96
SWIDTH 285 0
DWIDTH 7 0
BBX 4 3 1 15
BITMAP
C0
20
30
ENDCHAR
STARTCHAR a
ENCODING 97
SWIDTH 535 0
DWIDTH 13 0
BBX 10 13 1 0
BITMAP
1F00
2180
40C0
4040
0040
0040
1FC0
6040
C040
C040
C0C0
6140
3E40
ENDCHAR
STARTCHAR b
ENCODING 98
SWIDTH 554 0
DWIDTH 13 0
BBX 10 18 2 0
BITMAP
8000
8000
8000
8000
8000
9E00
E100
C080
8080
80C0
80C0
80C0
80C0
80C0
8080
C080
E100
9E00
ENDCHAR
STARTCHAR c
ENCODING 99
SWIDTH 515 0
DWIDTH 12 0
BBX 10 13 1 0
BITMAP
1F00
2180
40C0
C040
8000
8000
8000
8000
8000
C040
40C0
2180
1F00
ENDCHAR
STARTCHAR d
ENCODING 100
SWIDTH 555 0
DWIDTH 13 0
BBX 10 18 1 0
BITMAP
0040
0040
0040
0040
0040
1E40
2140
40C0
C040
C040
C040
C040
C040
C040
C040
40C0
21C0
1E40
ENDCHAR
STARTCHAR e
ENCODING 101
SWIDTH 516 0
DWIDTH 12 0
BBX 10 13 1 0
BITMAP
1F00
2180
40C0
C040
8040
FFC0
8000
8000
C000
C000
6040
3080
1F00
ENDCHAR
STARTCHAR f
ENCODING 102
SWIDTH 331 0
DWIDTH 8 0
BBX 7 18 1 0
BITMAP
1E
30
20
20
20
FC
20
20
20
20
20
20
20
20
20
20
20
20
ENDCHAR
STARTCHAR g
ENCODING 103
SWIDTH 554 0
DWIDTH 13 0
BBX 10 18 1 -5
BITMAP
1E40
21C0
40C0
C040
C040
C040
C040
C040
C040
C040
40C0
21C0
1E40
0040
0040
40C0
6180
1F00
ENDCHAR
STARTCHAR h
ENCODING 104
SWIDTH 548 0
DWIDTH 13 0
BBX 9 18 2 0
BITMAP
8000
8000
8000
8000
8000
9E00
A180
C080
8080
8080
8080
8080
8080
8080
8080
8080
8080
8080
ENDCHAR
STARTCHAR i
ENCODING 105
SWIDTH 224 0
DWIDTH 5 0
BBX 2 18 2 0
BITMAP
80
C0
00
00
00
80
80
80
80
80
80
80
80
80
80
80
80
80
ENDCHAR
STARTCHAR j
ENCODING 106
SWIDTH 228 0
DWIDTH 5 0
BBX 4 23 -1 -5
BITMAP
10
30
00
00
00
10
10
10
10
10
10
10
10
10
10
10
10
10
10
10
10
30
E0
ENDCHAR
STARTCHAR k
ENCODING 107
SWIDTH 489 0
DWIDTH 12 0
BBX 10 18 2 0
BITMAP
8000
8000
8000
8000
8000
8180
8300
8600
8C00
9800
B000
F800
C800
8C00
8600
8300
8100
80C0
ENDCHAR
STARTCHAR l
ENCODING 108
SWIDTH 224 0
DWIDTH 5 0
BBX 1 18 2 0
BITMAP
80
80
80
80
80
80
80
80
80
80
80
80
80
80
80
80
80
80
ENDCHAR
STARTCHAR m
ENCODING 109
SWIDTH 886 0
DWIDTH 21 0
BBX 17 13 2 0
BITMAP
9E1F00
A12180
C1C080
808080
808080
808080
808080
808080
808080
808080
808080
808080
808080
ENDCHAR
STARTCHAR n
ENCODING 110
SWIDTH 549 0
DWIDTH 13 0
BBX 9 13 2 0
BITMAP
9E00
A180
C080
8080
8080
8080
8080
8080
8080
8080
8080
8080
8080
ENDCHAR
STARTCHAR o
ENCODING 111
SWIDTH 560 0
DWIDTH 13 0
BBX 11 13 1 0
BITMAP
1F00
3180
4040
C060
8020
8020
8020
8020
8020
C060
4040
3180
1F00
ENDCHAR
STARTCHAR p
ENCODING 112
SWIDTH 554 0
DWIDTH 13 0
BBX 10 18 2 -5
BITMAP
9E00
E300
C180
8080
80C0
80C0
80C0
80C0
80C0
8080
C180
E300
9E00
8000
8000
8000
8000
8000
ENDCHAR
STARTCHAR q
ENCODING 113
SWIDTH 557 0
DWIDTH 13 0
BBX 10 18 1 -5
BITMAP
1E40
21C0
40C0
C040
C040
C040
C040
C040
C040
C040
40C0
21C0
1E40
0040
0040
0040
0040
0040
ENDCHAR
STARTCHAR r
ENCODING 114
SWIDTH 336 0
DWIDTH 8 0
BBX 6 13 2 0
BITMAP
9C
A0
C0
80
80
80
80
80
80
80
80
80
80
ENDCHAR
STARTCHAR s
ENCODING 115
SWIDTH 506 0
DWIDTH 12 0
BBX 10 13 1 0
BITMAP
1F00
6180
4080
40C0
4000
7000
1E00
0180
00C0
C0C0
C0C0
6180
3F00
ENDCHAR
STARTCHAR t
ENCODING 116
SWIDTH 321 0
DWIDTH 8 0
BBX 7 16 0 0
BITMAP
10
10
10
FE
10
10
10
10
10
10
10
10
10
10
18
0E
ENDCHAR
STARTCHAR u
ENCODING 117
SWIDTH 549 0
DWIDTH 13 0
BBX 9 13 2 0
BITMAP
8080
8080
8080
8080
8080
8080
8080
8080
8080
8080
8180
4380
3E80
ENDCHAR
STARTCHAR v
ENCODING 118
SWIDTH 480 0
DWIDTH 12 0
BBX 10 13 1 0
BITMAP
8040
C0C0
4080
4080
6180
2100
2100
3300
1200
1200
0C00
0C00
0C00
ENDCHAR
STARTCHAR w
ENCODING 119
SWIDTH 753 0
DWIDTH 18 0
BBX 16 13 1 0
BITMAP
8181
C183
C183
43C2
4242
6246
2664
2424
2424
3C3C
1818
1818
1818
ENDCHAR
STARTCHAR x
ENCODING 120
SWIDTH 486 0
DWIDTH 12 0
BBX 10 13 1 0
BITMAP
C0C0
4180
6100
3300
1600
1C00
0C00
1C00
1600
3300
6100
4180
C0C0
ENDCHAR
STARTCHAR y
ENCODING 121
SWIDTH 475 0
DWIDTH 11 0
BBX 11 18 0 -5
BITMAP
C060
4040
60C0
60C0
2080
3180
1180
1100
1B00
0A00
0E00
0E00
0400
0400
0C00
0800
1800
7000
ENDCHAR
STARTCHAR z
ENCODING 122
SWIDTH 486 0
DWIDTH 12 0
BBX 10 13 1 0
BITMAP
FF80
0180
0100
0300
0600
0400
0C00
1800
1000
3000
6000
C000
FFC0
ENDCHAR
STARTCHAR braceleft
ENCODING 123
SWIDTH 330 0
DWIDTH 8 0
BBX 7 24 1 -5
BITMAP
06
0C
18
10
10
10
10
10
30
30
20
C0
60
30
30
10
10
10
10
10
10
18
0C
06
ENDCHAR
STARTCHAR bar
ENCODING 124
SWIDTH 220 0
DWIDTH 5 0
BBX 1 20 2 -3
BITMAP
80
80
80
80
80
80
80
80
80
80
80
80
80
80
80
80
80
80
80
80
ENDCHAR
STARTCHAR braceright
ENCODING 125
SWIDTH 330 0
DWIDTH 8 0
BBX 7 24 0 -5
BITMAP
C0
60
30
10
10
10
10
10
10
18
08
06
0C
18
18
10
10
10
10
10
10
30
60
C0
ENDCHAR
STARTCHAR asciitilde
ENCODING 126
SWIDTH 684 0
DWIDTH 16 0
BBX 13 4 1 5
BITMAP
3C08
6608
4118
C0F0
ENDCHAR
ENDFONT
